<mxfile host="Electron" modified="2024-05-24T19:00:52.455Z" agent="Mozilla/5.0 (Windows NT 10.0; Win64; x64) AppleWebKit/537.36 (KHTML, like Gecko) draw.io/24.4.8 Chrome/124.0.6367.207 Electron/30.0.6 Safari/537.36" etag="Krid6gMnDSlDvR0UWfLd" version="24.4.8" type="device">
  <diagram name="Page-1" id="lVDr4kfoH9zzfliGT05G">
    <mxGraphModel dx="989" dy="606" grid="1" gridSize="10" guides="1" tooltips="1" connect="1" arrows="1" fold="1" page="1" pageScale="1" pageWidth="827" pageHeight="1169" math="0" shadow="0">
      <root>
        <mxCell id="0" />
        <mxCell id="1" parent="0" />
        <mxCell id="-mZvuhGZkcsRAi4728JE-2" value="" style="rounded=0;whiteSpace=wrap;html=1;" parent="1" vertex="1">
          <mxGeometry x="133.5" y="60" width="560" height="800" as="geometry" />
        </mxCell>
        <mxCell id="-mZvuhGZkcsRAi4728JE-4" value="User" style="shape=umlActor;verticalLabelPosition=bottom;verticalAlign=top;html=1;outlineConnect=0;" parent="1" vertex="1">
          <mxGeometry x="40" y="340" width="30" height="60" as="geometry" />
        </mxCell>
        <mxCell id="-mZvuhGZkcsRAi4728JE-6" value="Manager" style="shape=umlActor;verticalLabelPosition=bottom;verticalAlign=top;html=1;outlineConnect=0;" parent="1" vertex="1">
          <mxGeometry x="750" y="600" width="30" height="60" as="geometry" />
        </mxCell>
        <mxCell id="-mZvuhGZkcsRAi4728JE-9" value="Update Task Status" style="ellipse;whiteSpace=wrap;html=1;" parent="1" vertex="1">
          <mxGeometry x="450" y="680" width="120" height="80" as="geometry" />
        </mxCell>
        <mxCell id="-mZvuhGZkcsRAi4728JE-10" value="" style="endArrow=none;html=1;rounded=0;entryX=0.5;entryY=0.5;entryDx=0;entryDy=0;entryPerimeter=0;" parent="1" source="-mZvuhGZkcsRAi4728JE-9" target="-mZvuhGZkcsRAi4728JE-6" edge="1">
          <mxGeometry width="50" height="50" relative="1" as="geometry">
            <mxPoint x="410" y="490" as="sourcePoint" />
            <mxPoint x="460" y="440" as="targetPoint" />
          </mxGeometry>
        </mxCell>
        <mxCell id="-mZvuhGZkcsRAi4728JE-43" value="&lt;font style=&quot;font-size: 20px;&quot;&gt;&lt;b&gt;TASK MANAGEMENT USE CASE DIAGRAM&lt;/b&gt;&lt;/font&gt;" style="text;html=1;strokeColor=none;fillColor=none;align=center;verticalAlign=middle;whiteSpace=wrap;rounded=0;" parent="1" vertex="1">
          <mxGeometry x="240" y="90" width="350" height="30" as="geometry" />
        </mxCell>
        <mxCell id="-mZvuhGZkcsRAi4728JE-46" value="" style="endArrow=none;html=1;rounded=0;entryX=0.04;entryY=0.65;entryDx=0;entryDy=0;entryPerimeter=0;exitX=0.5;exitY=0.5;exitDx=0;exitDy=0;exitPerimeter=0;" parent="1" target="-mZvuhGZkcsRAi4728JE-47" edge="1" source="-mZvuhGZkcsRAi4728JE-4">
          <mxGeometry width="50" height="50" relative="1" as="geometry">
            <mxPoint x="104" y="470" as="sourcePoint" />
            <mxPoint x="305" y="594" as="targetPoint" />
          </mxGeometry>
        </mxCell>
        <mxCell id="-mZvuhGZkcsRAi4728JE-47" value="Create task" style="ellipse;whiteSpace=wrap;html=1;" parent="1" vertex="1">
          <mxGeometry x="285" y="150" width="120" height="80" as="geometry" />
        </mxCell>
        <mxCell id="-mZvuhGZkcsRAi4728JE-48" value="" style="endArrow=none;html=1;rounded=0;entryX=0;entryY=0.5;entryDx=0;entryDy=0;exitX=0.5;exitY=0.5;exitDx=0;exitDy=0;exitPerimeter=0;" parent="1" source="-mZvuhGZkcsRAi4728JE-4" target="-mZvuhGZkcsRAi4728JE-49" edge="1">
          <mxGeometry width="50" height="50" relative="1" as="geometry">
            <mxPoint x="100" y="499.58067729083655" as="sourcePoint" />
            <mxPoint x="301" y="730" as="targetPoint" />
          </mxGeometry>
        </mxCell>
        <mxCell id="-mZvuhGZkcsRAi4728JE-49" value="Assign Task" style="ellipse;whiteSpace=wrap;html=1;" parent="1" vertex="1">
          <mxGeometry x="285" y="240" width="120" height="80" as="geometry" />
        </mxCell>
        <mxCell id="-mZvuhGZkcsRAi4728JE-50" value="" style="endArrow=none;html=1;rounded=0;entryX=0;entryY=0.5;entryDx=0;entryDy=0;exitX=0.5;exitY=0.5;exitDx=0;exitDy=0;exitPerimeter=0;" parent="1" source="-mZvuhGZkcsRAi4728JE-4" target="-mZvuhGZkcsRAi4728JE-51" edge="1">
          <mxGeometry width="50" height="50" relative="1" as="geometry">
            <mxPoint x="100" y="600" as="sourcePoint" />
            <mxPoint x="301" y="849" as="targetPoint" />
          </mxGeometry>
        </mxCell>
        <mxCell id="-mZvuhGZkcsRAi4728JE-51" value="Update Task" style="ellipse;whiteSpace=wrap;html=1;" parent="1" vertex="1">
          <mxGeometry x="285" y="330" width="120" height="80" as="geometry" />
        </mxCell>
        <mxCell id="-mZvuhGZkcsRAi4728JE-52" value="Delete Task" style="ellipse;whiteSpace=wrap;html=1;" parent="1" vertex="1">
          <mxGeometry x="450" y="770" width="120" height="80" as="geometry" />
        </mxCell>
        <mxCell id="-mZvuhGZkcsRAi4728JE-53" value="" style="endArrow=none;html=1;rounded=0;entryX=0.5;entryY=0.5;entryDx=0;entryDy=0;entryPerimeter=0;" parent="1" source="-mZvuhGZkcsRAi4728JE-52" target="-mZvuhGZkcsRAi4728JE-6" edge="1">
          <mxGeometry width="50" height="50" relative="1" as="geometry">
            <mxPoint x="420" y="626" as="sourcePoint" />
            <mxPoint x="765" y="617" as="targetPoint" />
          </mxGeometry>
        </mxCell>
        <mxCell id="3_s80eqDKr4KW6ACQISb-1" value="" style="endArrow=none;html=1;rounded=0;entryX=0;entryY=0.5;entryDx=0;entryDy=0;exitX=0.5;exitY=0.5;exitDx=0;exitDy=0;exitPerimeter=0;" parent="1" source="-mZvuhGZkcsRAi4728JE-4" target="3_s80eqDKr4KW6ACQISb-2" edge="1">
          <mxGeometry width="50" height="50" relative="1" as="geometry">
            <mxPoint x="100" y="610" as="sourcePoint" />
            <mxPoint x="301" y="969" as="targetPoint" />
          </mxGeometry>
        </mxCell>
        <mxCell id="3_s80eqDKr4KW6ACQISb-2" value="View Task" style="ellipse;whiteSpace=wrap;html=1;" parent="1" vertex="1">
          <mxGeometry x="285" y="420" width="120" height="80" as="geometry" />
        </mxCell>
        <mxCell id="JuTbYIXC1nFY9_GD6dFt-1" value="" style="endArrow=none;html=1;rounded=0;entryX=0;entryY=0.5;entryDx=0;entryDy=0;exitX=0.5;exitY=0.5;exitDx=0;exitDy=0;exitPerimeter=0;" edge="1" parent="1" target="JuTbYIXC1nFY9_GD6dFt-2" source="-mZvuhGZkcsRAi4728JE-4">
          <mxGeometry width="50" height="50" relative="1" as="geometry">
            <mxPoint x="100" y="520" as="sourcePoint" />
            <mxPoint x="301" y="1069" as="targetPoint" />
          </mxGeometry>
        </mxCell>
        <mxCell id="JuTbYIXC1nFY9_GD6dFt-2" value="Comment" style="ellipse;whiteSpace=wrap;html=1;" vertex="1" parent="1">
          <mxGeometry x="285" y="511" width="120" height="80" as="geometry" />
        </mxCell>
        <mxCell id="JuTbYIXC1nFY9_GD6dFt-3" value="" style="endArrow=none;html=1;rounded=0;entryX=0;entryY=0.5;entryDx=0;entryDy=0;exitX=0.5;exitY=0.5;exitDx=0;exitDy=0;exitPerimeter=0;" edge="1" parent="1" target="JuTbYIXC1nFY9_GD6dFt-4" source="-mZvuhGZkcsRAi4728JE-4">
          <mxGeometry width="50" height="50" relative="1" as="geometry">
            <mxPoint x="100" y="641" as="sourcePoint" />
            <mxPoint x="301" y="1099" as="targetPoint" />
          </mxGeometry>
        </mxCell>
        <mxCell id="JuTbYIXC1nFY9_GD6dFt-4" value="Close Task" style="ellipse;whiteSpace=wrap;html=1;" vertex="1" parent="1">
          <mxGeometry x="285" y="600" width="120" height="80" as="geometry" />
        </mxCell>
        <mxCell id="JuTbYIXC1nFY9_GD6dFt-5" value="" style="endArrow=none;html=1;rounded=0;entryX=0.5;entryY=0.5;entryDx=0;entryDy=0;entryPerimeter=0;exitX=1;exitY=0.5;exitDx=0;exitDy=0;" edge="1" parent="1" source="JuTbYIXC1nFY9_GD6dFt-4" target="-mZvuhGZkcsRAi4728JE-6">
          <mxGeometry width="50" height="50" relative="1" as="geometry">
            <mxPoint x="573" y="711" as="sourcePoint" />
            <mxPoint x="775" y="640" as="targetPoint" />
          </mxGeometry>
        </mxCell>
        <mxCell id="JuTbYIXC1nFY9_GD6dFt-6" value="" style="endArrow=none;html=1;rounded=0;entryX=0.5;entryY=0.5;entryDx=0;entryDy=0;entryPerimeter=0;exitX=1;exitY=0.5;exitDx=0;exitDy=0;" edge="1" parent="1" source="JuTbYIXC1nFY9_GD6dFt-2" target="-mZvuhGZkcsRAi4728JE-6">
          <mxGeometry width="50" height="50" relative="1" as="geometry">
            <mxPoint x="415" y="650" as="sourcePoint" />
            <mxPoint x="775" y="640" as="targetPoint" />
          </mxGeometry>
        </mxCell>
        <mxCell id="JuTbYIXC1nFY9_GD6dFt-7" value="" style="endArrow=none;html=1;rounded=0;entryX=0.5;entryY=0.5;entryDx=0;entryDy=0;entryPerimeter=0;exitX=1;exitY=0.5;exitDx=0;exitDy=0;" edge="1" parent="1" source="3_s80eqDKr4KW6ACQISb-2" target="-mZvuhGZkcsRAi4728JE-6">
          <mxGeometry width="50" height="50" relative="1" as="geometry">
            <mxPoint x="425" y="660" as="sourcePoint" />
            <mxPoint x="785" y="650" as="targetPoint" />
          </mxGeometry>
        </mxCell>
        <mxCell id="JuTbYIXC1nFY9_GD6dFt-8" value="" style="endArrow=none;html=1;rounded=0;entryX=0.5;entryY=0.5;entryDx=0;entryDy=0;entryPerimeter=0;exitX=1;exitY=0.5;exitDx=0;exitDy=0;" edge="1" parent="1" source="-mZvuhGZkcsRAi4728JE-51" target="-mZvuhGZkcsRAi4728JE-6">
          <mxGeometry width="50" height="50" relative="1" as="geometry">
            <mxPoint x="415" y="470" as="sourcePoint" />
            <mxPoint x="775" y="640" as="targetPoint" />
          </mxGeometry>
        </mxCell>
        <mxCell id="JuTbYIXC1nFY9_GD6dFt-9" value="" style="endArrow=none;html=1;rounded=0;entryX=0.5;entryY=0.5;entryDx=0;entryDy=0;entryPerimeter=0;exitX=1;exitY=0.5;exitDx=0;exitDy=0;" edge="1" parent="1" source="-mZvuhGZkcsRAi4728JE-49" target="-mZvuhGZkcsRAi4728JE-6">
          <mxGeometry width="50" height="50" relative="1" as="geometry">
            <mxPoint x="415" y="380" as="sourcePoint" />
            <mxPoint x="775" y="640" as="targetPoint" />
          </mxGeometry>
        </mxCell>
        <mxCell id="JuTbYIXC1nFY9_GD6dFt-10" value="" style="endArrow=none;html=1;rounded=0;entryX=0.5;entryY=0.5;entryDx=0;entryDy=0;entryPerimeter=0;exitX=1;exitY=0.5;exitDx=0;exitDy=0;" edge="1" parent="1" source="-mZvuhGZkcsRAi4728JE-47" target="-mZvuhGZkcsRAi4728JE-6">
          <mxGeometry width="50" height="50" relative="1" as="geometry">
            <mxPoint x="425" y="390" as="sourcePoint" />
            <mxPoint x="785" y="650" as="targetPoint" />
          </mxGeometry>
        </mxCell>
        <mxCell id="JuTbYIXC1nFY9_GD6dFt-14" value="System" style="shape=umlActor;verticalLabelPosition=bottom;verticalAlign=top;html=1;outlineConnect=0;" vertex="1" parent="1">
          <mxGeometry x="750" y="140" width="30" height="60" as="geometry" />
        </mxCell>
        <mxCell id="JuTbYIXC1nFY9_GD6dFt-16" value="Notify Users" style="ellipse;whiteSpace=wrap;html=1;" vertex="1" parent="1">
          <mxGeometry x="550" y="130" width="120" height="80" as="geometry" />
        </mxCell>
        <mxCell id="JuTbYIXC1nFY9_GD6dFt-17" value="" style="endArrow=none;html=1;rounded=0;entryX=0.5;entryY=0.5;entryDx=0;entryDy=0;entryPerimeter=0;" edge="1" parent="1" source="JuTbYIXC1nFY9_GD6dFt-16" target="JuTbYIXC1nFY9_GD6dFt-14">
          <mxGeometry width="50" height="50" relative="1" as="geometry">
            <mxPoint x="430" y="-50" as="sourcePoint" />
            <mxPoint x="814.9999999999998" y="90" as="targetPoint" />
          </mxGeometry>
        </mxCell>
      </root>
    </mxGraphModel>
  </diagram>
</mxfile>
